<svg xmlns="http://www.w3.org/2000/svg" xmlns:xlink="http://www.w3.org/1999/xlink" width="40" zoomAndPan="magnify" viewBox="0 0 30 30.000001" height="40" preserveAspectRatio="xMidYMid meet" version="1.2"><defs><clipPath id="df6a7ef196"><path d="M 0.484375 2 L 29.515625 2 L 29.515625 27 L 0.484375 27 Z M 0.484375 2 "/></clipPath></defs><g id="6a55f979bc"><g clip-rule="nonzero" clip-path="url(#df6a7ef196)"><path style=" stroke:none;fill-rule:nonzero;fill:#484848;fill-opacity:1;" d="M 11.0625 3.210938 L 11.0625 2.117188 L 9.964844 2.117188 L 9.964844 3.210938 Z M 27.957031 3.210938 L 29.054688 3.210938 L 29.054688 2.117188 L 27.957031 2.117188 Z M 11.0625 25.4375 L 9.964844 25.4375 L 9.964844 26.53125 L 11.0625 26.53125 Z M 27.957031 25.4375 L 27.957031 26.53125 L 29.054688 26.53125 L 29.054688 25.4375 Z M 1.664062 12.917969 C 1.058594 12.917969 0.566406 13.40625 0.566406 14.011719 C 0.566406 14.617188 1.058594 15.109375 1.664062 15.109375 Z M 23.988281 14.785156 C 24.417969 14.359375 24.417969 13.667969 23.988281 13.238281 L 16.992188 6.269531 C 16.5625 5.84375 15.867188 5.84375 15.4375 6.269531 C 15.007812 6.699219 15.007812 7.390625 15.4375 7.820312 L 21.65625 14.011719 L 15.4375 20.207031 C 15.007812 20.632812 15.007812 21.328125 15.4375 21.753906 C 15.867188 22.183594 16.5625 22.183594 16.992188 21.753906 Z M 11.0625 7.714844 L 12.160156 7.714844 L 12.160156 3.210938 L 9.964844 3.210938 L 9.964844 7.714844 Z M 11.0625 3.210938 L 11.0625 4.304688 L 27.957031 4.304688 L 27.957031 2.117188 L 11.0625 2.117188 Z M 11.0625 20.628906 L 9.964844 20.628906 L 9.964844 25.4375 L 12.160156 25.4375 L 12.160156 20.628906 Z M 11.0625 25.4375 L 11.0625 26.53125 L 27.957031 26.53125 L 27.957031 24.339844 L 11.0625 24.339844 Z M 27.957031 3.210938 L 26.859375 3.210938 L 26.859375 25.4375 L 29.054688 25.4375 L 29.054688 3.210938 Z M 1.664062 14.011719 L 1.664062 15.109375 L 23.210938 15.109375 L 23.210938 12.917969 L 1.664062 12.917969 Z M 1.664062 14.011719 "/></g></g></svg>