<svg xmlns="http://www.w3.org/2000/svg" xmlns:xlink="http://www.w3.org/1999/xlink" width="40" zoomAndPan="magnify" viewBox="0 0 30 30.000001" height="40" preserveAspectRatio="xMidYMid meet" version="1.2"><defs><clipPath id="93589f1022"><path d="M 0.484375 14 L 15 14 L 15 25.402344 L 0.484375 25.402344 Z M 0.484375 14 "/></clipPath><clipPath id="88afe6da22"><path d="M 16 14 L 29.515625 14 L 29.515625 25.402344 L 16 25.402344 Z M 16 14 "/></clipPath><clipPath id="0cea4ea747"><path d="M 6 13 L 24 13 L 24 25.402344 L 6 25.402344 Z M 6 13 "/></clipPath></defs><g id="95c4800f83"><g clip-rule="nonzero" clip-path="url(#93589f1022)"><path style=" stroke:none;fill-rule:nonzero;fill:#484848;fill-opacity:1;" d="M 14.21875 25.492188 C 14.21875 24.109375 14.050781 22.742188 13.714844 21.46875 C 13.382812 20.191406 12.894531 19.03125 12.277344 18.054688 C 11.660156 17.078125 10.929688 16.304688 10.121094 15.777344 C 9.316406 15.246094 8.453125 14.976562 7.582031 14.976562 C 6.710938 14.976562 5.847656 15.246094 5.042969 15.777344 C 4.238281 16.304688 3.503906 17.078125 2.890625 18.054688 C 2.273438 19.03125 1.785156 20.191406 1.449219 21.46875 C 1.117188 22.742188 0.945312 24.109375 0.945312 25.492188 Z M 14.21875 25.492188 "/></g><path style=" stroke:none;fill-rule:nonzero;fill:#484848;fill-opacity:1;" d="M 11.085938 10.257812 C 11.085938 10.707031 11 11.144531 10.828125 11.5625 C 10.65625 11.980469 10.414062 12.347656 10.097656 12.667969 C 9.777344 12.984375 9.414062 13.234375 9 13.40625 C 8.585938 13.578125 8.15625 13.664062 7.707031 13.664062 C 7.257812 13.664062 6.828125 13.578125 6.414062 13.40625 C 6 13.234375 5.632812 12.984375 5.316406 12.667969 C 5 12.347656 4.753906 11.980469 4.582031 11.5625 C 4.410156 11.144531 4.324219 10.707031 4.324219 10.257812 C 4.324219 9.804688 4.410156 9.371094 4.582031 8.953125 C 4.753906 8.535156 5 8.167969 5.316406 7.847656 C 5.632812 7.527344 6 7.28125 6.414062 7.109375 C 6.828125 6.933594 7.257812 6.847656 7.707031 6.847656 C 8.15625 6.847656 8.585938 6.933594 9 7.109375 C 9.414062 7.28125 9.777344 7.527344 10.097656 7.847656 C 10.414062 8.167969 10.65625 8.535156 10.828125 8.953125 C 11 9.371094 11.085938 9.804688 11.085938 10.257812 Z M 11.085938 10.257812 "/><g clip-rule="nonzero" clip-path="url(#88afe6da22)"><path style=" stroke:none;fill-rule:nonzero;fill:#484848;fill-opacity:1;" d="M 29.394531 25.492188 C 29.394531 24.109375 29.222656 22.742188 28.886719 21.46875 C 28.554688 20.191406 28.066406 19.03125 27.449219 18.054688 C 26.832031 17.078125 26.101562 16.304688 25.296875 15.777344 C 24.488281 15.246094 23.625 14.976562 22.753906 14.976562 C 21.882812 14.976562 21.019531 15.246094 20.214844 15.777344 C 19.410156 16.304688 18.675781 17.078125 18.0625 18.054688 C 17.445312 19.03125 16.957031 20.191406 16.621094 21.46875 C 16.289062 22.742188 16.117188 24.109375 16.117188 25.492188 Z M 29.394531 25.492188 "/></g><path style=" stroke:none;fill-rule:nonzero;fill:#484848;fill-opacity:1;" d="M 26.257812 10.257812 C 26.257812 10.707031 26.171875 11.144531 26 11.5625 C 25.828125 11.980469 25.585938 12.347656 25.269531 12.667969 C 24.949219 12.984375 24.585938 13.234375 24.171875 13.40625 C 23.757812 13.578125 23.324219 13.664062 22.878906 13.664062 C 22.429688 13.664062 22 13.578125 21.585938 13.40625 C 21.171875 13.234375 20.804688 12.984375 20.488281 12.667969 C 20.171875 12.347656 19.925781 11.980469 19.753906 11.5625 C 19.582031 11.144531 19.496094 10.707031 19.496094 10.257812 C 19.496094 9.804688 19.582031 9.371094 19.753906 8.953125 C 19.925781 8.535156 20.171875 8.167969 20.488281 7.847656 C 20.804688 7.527344 21.171875 7.28125 21.585938 7.109375 C 22 6.933594 22.429688 6.847656 22.878906 6.847656 C 23.324219 6.847656 23.757812 6.933594 24.171875 7.109375 C 24.585938 7.28125 24.949219 7.527344 25.269531 7.847656 C 25.585938 8.167969 25.828125 8.535156 26 8.953125 C 26.171875 9.371094 26.257812 9.804688 26.257812 10.257812 Z M 26.257812 10.257812 "/><g clip-rule="nonzero" clip-path="url(#0cea4ea747)"><path style=" stroke:none;fill-rule:nonzero;fill:#7b7b7b;fill-opacity:1;" d="M 23.292969 25.546875 C 23.292969 23.945312 23.078125 22.363281 22.660156 20.882812 C 22.246094 19.402344 21.632812 18.058594 20.863281 16.925781 C 20.09375 15.792969 19.179688 14.894531 18.171875 14.28125 C 17.167969 13.671875 16.089844 13.355469 15 13.355469 C 13.910156 13.355469 12.832031 13.671875 11.828125 14.28125 C 10.820312 14.894531 9.90625 15.792969 9.136719 16.925781 C 8.367188 18.058594 7.753906 19.402344 7.339844 20.882812 C 6.921875 22.363281 6.707031 23.945312 6.707031 25.546875 Z M 23.292969 25.546875 "/></g><path style=" stroke:none;fill-rule:nonzero;fill:#7b7b7b;fill-opacity:1;" d="M 19.433594 7.328125 C 19.433594 7.609375 19.40625 7.890625 19.351562 8.167969 C 19.300781 8.441406 19.21875 8.710938 19.109375 8.972656 C 19.003906 9.234375 18.871094 9.480469 18.714844 9.71875 C 18.5625 9.953125 18.382812 10.167969 18.1875 10.367188 C 17.988281 10.570312 17.773438 10.746094 17.539062 10.902344 C 17.304688 11.0625 17.058594 11.195312 16.800781 11.300781 C 16.542969 11.410156 16.277344 11.492188 16 11.546875 C 15.726562 11.601562 15.449219 11.628906 15.167969 11.628906 C 14.886719 11.628906 14.609375 11.601562 14.335938 11.546875 C 14.0625 11.492188 13.792969 11.410156 13.535156 11.300781 C 13.277344 11.195312 13.03125 11.0625 12.796875 10.902344 C 12.566406 10.746094 12.347656 10.570312 12.152344 10.367188 C 11.953125 10.167969 11.777344 9.953125 11.621094 9.71875 C 11.464844 9.480469 11.332031 9.234375 11.226562 8.972656 C 11.121094 8.710938 11.039062 8.441406 10.984375 8.167969 C 10.929688 7.890625 10.902344 7.609375 10.902344 7.328125 C 10.902344 7.042969 10.929688 6.765625 10.984375 6.488281 C 11.039062 6.210938 11.121094 5.941406 11.226562 5.679688 C 11.332031 5.417969 11.464844 5.171875 11.621094 4.9375 C 11.777344 4.703125 11.953125 4.484375 12.152344 4.285156 C 12.347656 4.085938 12.566406 3.90625 12.796875 3.75 C 13.03125 3.59375 13.277344 3.460938 13.535156 3.351562 C 13.792969 3.246094 14.0625 3.164062 14.335938 3.109375 C 14.609375 3.050781 14.886719 3.023438 15.167969 3.023438 C 15.449219 3.023438 15.726562 3.050781 16 3.109375 C 16.277344 3.164062 16.542969 3.246094 16.800781 3.351562 C 17.058594 3.460938 17.304688 3.59375 17.539062 3.75 C 17.773438 3.90625 17.988281 4.085938 18.1875 4.285156 C 18.382812 4.484375 18.5625 4.703125 18.714844 4.9375 C 18.871094 5.171875 19.003906 5.417969 19.109375 5.679688 C 19.21875 5.941406 19.300781 6.210938 19.351562 6.488281 C 19.40625 6.765625 19.433594 7.042969 19.433594 7.328125 Z M 19.433594 7.328125 "/></g></svg>